<svg width="268" height="57" viewBox="0 0 268 57" fill="none" xmlns="http://www.w3.org/2000/svg">
<g clip-path="url(#clip0_64_48)">
<path d="M27.3565 0C27.4678 0.0804674 27.1339 0.286106 27.1339 0.333046V26.6057C27.1339 26.6839 27.5279 26.8515 27.0226 27.1622H0.333887L0 26.8292V0H27.3565Z" fill="white"/>
<path d="M27.3565 30.0591C27.4678 30.1395 27.1339 30.3452 27.1339 30.3921V57H0V30.0591H27.3565Z" fill="white"/>
<path d="M57.1592 0V26.9409H30.0254C29.9653 26.7778 30.2479 26.675 30.2479 26.6079V0.333046C30.2479 0.26599 29.9653 0.16317 30.0254 0H57.1592Z" fill="white"/>
<path d="M57.1592 30.0591H30.2479V57H57.1592V30.0591Z" fill="white"/>
<path d="M82.9576 11.3547L93.1856 36.7377L103.529 11.3547H111.425V45.6428H105.642V19.1467L94.9753 45.54L90.7705 45.6115L79.8413 19.368V45.084C79.8413 45.1622 80.2353 45.3299 79.73 45.6406H74.5035V11.3547H82.9553H82.9576Z" fill="white"/>
<path d="M254.21 9.35213V14.2495C252.359 13.4135 249.692 13.0782 248.425 15.0251C248.307 15.2061 247.76 16.5026 247.76 16.5875V21.1518H256.434V15.6956L262.217 13.8024V21.1495H268V25.8256H262.217V38.8501C262.217 39.0759 262.687 40.1667 262.878 40.4148C264.094 41.9928 266.453 41.4408 268 40.7434V45.4194C263.942 46.6465 258.658 46.7851 256.997 42.0733C256.888 41.7649 256.436 40.1443 256.436 39.9633V25.8256H247.762V45.6429H241.979V25.8256H238.086L237.752 25.4926V21.1518H241.645L241.979 20.8187V15.9214C241.979 15.7672 242.627 13.8717 242.758 13.5834C244.706 9.3186 250.001 8.06241 254.21 9.35213Z" fill="white"/>
<path d="M176.546 20.5505C186.594 19.6363 192.085 27.1533 190.013 36.7043C187.141 49.93 166.592 49.1097 165.276 35.931C164.471 27.8663 168.012 21.3261 176.548 20.5505H176.546ZM177.212 25.2198C167.689 26.1027 169.419 44.7779 180.366 41.0742C186.485 39.0044 186.155 24.3928 177.212 25.2198Z" fill="white"/>
<path d="M223.475 20.5506C233.015 19.7526 238.496 26.4515 237.06 35.7075C235.849 43.5195 229.619 46.8992 222.097 46.0654C208.586 44.5656 207.998 21.8447 223.475 20.5506ZM223.914 25.2221C214.347 26.1453 216.67 45.2541 227.455 41.0116C233.298 38.7138 233.033 24.3415 223.914 25.2221Z" fill="white"/>
<path d="M208.172 26.7175C207.504 26.6661 207.077 26.1274 206.454 25.877C203.849 24.831 197.777 24.2699 199.153 28.7336C199.582 30.1239 204.726 31.7623 206.242 32.7682C209.18 34.7173 210.224 37.8264 208.947 41.186C206.754 46.955 197.888 47.0199 193.136 44.7601C193.02 44.6058 193.272 44.4628 193.272 44.4181V39.742C193.272 39.6526 192.7 39.3509 193.378 39.4112C195.351 41.1167 201.826 43.0121 203.373 40.2807C205.211 37.033 199.567 35.7231 197.637 34.7061C194.269 32.9313 192.833 30.7632 193.272 26.827C193.971 20.5505 203.566 19.1513 208.174 21.7084V26.7175H208.172Z" fill="white"/>
<path d="M146.122 27.1645C145.114 26.8248 144.233 26.0693 143.226 25.7228C129.119 20.8746 129.459 47.3954 144.339 40.4081C144.98 40.1086 145.441 39.5341 146.122 39.4112V44.4203C141.319 47.2635 133.708 46.7293 129.893 42.4086C126.078 38.088 126.02 30.5866 129.127 25.848C132.613 20.5349 140.684 19.0239 146.122 21.9319V27.1645Z" fill="white"/>
<path d="M164.804 26.7175C161.766 25.2333 158.572 25.5663 157.047 28.861C156.715 29.5808 156.13 31.6796 156.13 32.3949V45.643H150.57V21.1518H156.13V25.1595C156.718 25.2646 156.475 25.0679 156.595 24.8399C157.014 24.0397 157.374 23.1367 158.013 22.4795C159.598 20.8456 162.823 19.9828 164.804 21.2636V26.7197V26.7175Z" fill="white"/>
<path d="M122.768 21.1519H117.208V45.643H122.768V21.1519Z" fill="white"/>
<path d="M119.149 10.7379C124.466 9.6359 125.032 17.3921 120.024 17.2825C115.707 17.1887 115.541 11.4844 119.149 10.7379Z" fill="white"/>
</g>
<defs>
<clipPath id="clip0_64_48">
<rect width="268" height="57" fill="white"/>
</clipPath>
</defs>
</svg>
