<svg width="255" height="161" viewBox="0 0 255 161" fill="none" xmlns="http://www.w3.org/2000/svg">
<g clip-path="url(#clip0_75_95)">
<path d="M201.191 0C201.254 0.368828 200.745 0.360868 200.466 0.461698C186.611 5.50323 176.112 10.4094 164.373 19.5081C143.645 35.5773 131.65 54.7059 120.023 77.7431C119.84 78.1066 119.734 78.364 119.413 77.9341L108.144 49.9722C129.785 20.8215 164.965 2.53138 201.191 0Z" fill="white"/>
<path d="M140.172 14.0896C140.289 14.286 140.241 14.5885 140.199 14.814L135.635 17.4515C112.121 -1.00047 76.8004 10.0511 66.9937 37.9653C55.2421 71.4145 85.4953 104.269 119.768 95.7784C144.036 89.7657 158.767 63.6638 151.396 39.682C151.467 39.4008 154.747 36.3573 155.198 36.0468C155.424 35.8929 155.461 35.678 155.861 35.7868C161.309 52.0709 158.499 70.1276 147.904 83.6256C117.553 122.302 54.4886 97.3147 59.3787 47.584C62.9792 10.9612 105.971 -9.80723 136.439 11.3407C136.948 11.6962 140.053 13.8933 140.17 14.0923L140.172 14.0896Z" fill="white"/>
<path d="M131.209 20.4156C131.305 20.8349 131.061 20.9569 130.822 21.2143C130.469 21.5964 127.349 24.3905 127.105 24.3905C111.126 14.1933 90.1918 19.0597 80.2047 35.0122C67.8614 54.7325 79.0664 80.7574 101.569 85.7061C120.662 89.9038 139.695 76.6897 142.311 57.3594C142.605 55.1889 142.247 51.1716 142.728 49.5583C143.163 48.1042 146.018 45.2412 147.111 44.0047C151.674 65.4604 138.092 86.9824 116.412 91.1059C86.3179 96.8293 61.7296 68.0077 72.1651 39.1701C80.799 15.3104 110.293 6.32055 131.207 20.4209L131.209 20.4156Z" fill="white"/>
<path d="M116.101 79.7835C110.307 81.219 104.045 80.8767 98.4675 78.7327C97.6821 78.4302 94.8696 77.1778 94.3787 76.7267C94.0072 76.3844 93.7578 75.668 93.5243 75.193C89.0933 66.1315 85.8085 56.0856 81.5048 46.918C81.136 45.2941 82.2053 42.8954 82.8447 41.359C85.307 35.426 89.6107 30.9098 95.0288 27.5718L116.101 79.7861V79.7835Z" fill="white"/>
<path d="M126.441 125.383L132.786 144.352L133.462 145.002L139.695 125.383H148.443V154.011H142.876V133.601L135.067 154.029L130.546 153.751L123.26 133.866V154.011H117.428V125.383H126.441Z" fill="white"/>
<path d="M75.6781 125.383C81.6375 126.227 84.2324 134.622 80.0614 138.78C79.2097 139.629 77.891 139.717 77.6654 140.754C83.4072 142.397 80.6823 149.765 82.7014 154.011H76.6041C75.6383 151.182 76.5961 144.941 73.6695 143.294C73.4626 143.177 71.8069 142.612 71.7008 142.612H64.4121V154.011H58.0494V125.383H75.6781ZM64.4148 138.371H72.7648C73.0221 138.371 74.7707 137.472 75.0254 137.188C76.2618 135.808 76.1345 132.364 74.7654 131.069C74.5849 130.897 73.3856 130.154 73.2928 130.154H64.4121V138.371H64.4148Z" fill="white"/>
<path d="M5.83207 144.734C5.70736 149.98 13.6567 151.426 16.9548 148.834C19.1199 147.13 18.1408 144.413 15.9147 143.267C11.3483 140.916 2.44113 141.587 1.09324 135.028C-1.62111 121.806 23.6465 120.814 23.0574 133.866C22.9619 133.999 22.7178 133.601 22.6621 133.601H17.6261C17.5704 133.601 17.3369 133.977 17.2307 133.869C17.5916 128.007 5.78166 127.729 6.89605 133.463C7.35773 135.835 15.53 137.039 17.7004 137.769C27.0082 140.89 25.8567 151.928 16.9654 154.149C9.80409 155.935 -0.103408 153.711 7.15677e-05 144.734H5.83207Z" fill="white"/>
<path d="M93.572 125.383V145.398C93.572 145.698 94.4901 147.558 94.7819 147.9C96.8383 150.317 102.864 150.184 104.708 147.52C105.143 146.894 105.767 145.031 105.767 144.336V125.383H111.864V144.867C111.864 156.123 93.1793 157.951 88.7536 149.686C88.398 149.02 87.4773 146.552 87.4773 145.926V125.778C87.4773 125.699 87.143 125.574 87.212 125.38H93.5747L93.572 125.383Z" fill="white"/>
<path d="M53.2814 134.925H47.4494C46.5472 130.735 42.4479 128.952 38.4838 130.069C30.3461 132.364 30.7547 151.307 42.4797 149.442C45.5947 148.945 47.253 146.003 47.7121 143.142H53.5441C52.565 157.476 32.5828 158.75 27.8997 145.859C26.0769 140.844 26.5704 134.638 29.5793 130.178C35.5811 121.283 52.3899 123.125 53.2787 134.925H53.2814Z" fill="white"/>
<path d="M231.94 125.383V153.748H226.639V151.097C225.296 152.83 223.919 153.902 221.666 154.21C208.23 156.051 207.856 134.129 218.318 132.836C221.773 132.409 224.046 133.216 226.373 135.723V125.385H231.94V125.383ZM220.204 136.84C215.171 137.894 215.203 148.773 220.324 150.118C228.626 152.297 229.125 134.975 220.204 136.84Z" fill="white"/>
<path d="M239.759 133.335L244.533 147.385L249.566 133.335H255L246.454 156.468C244.119 161.791 241.062 161 235.915 160.904V156.399C238.656 156.94 241.81 157.025 241.484 153.35L234.06 133.335H239.759Z" fill="white"/>
<path d="M193.504 133.335V146.456C193.504 146.799 194.151 148.338 194.422 148.72C195.996 150.951 199.933 150.397 201.148 148.003C201.27 147.765 201.721 146.592 201.721 146.456V133.335H207.288V153.745H201.987C201.907 153.016 202.04 152.286 202.066 151.564C202.072 151.437 202.316 150.797 201.854 150.835C201.724 150.845 200.655 152.371 200.108 152.793C196.547 155.547 189.766 154.735 188.484 149.885C188.311 149.229 187.937 147.287 187.937 146.719V133.333H193.504V133.335Z" fill="white"/>
<path d="M169.648 139.168H164.612C164.623 136.405 160.712 135.681 158.629 136.498C157.087 137.103 156.711 138.987 158.151 139.929C161.484 142.113 170.258 140.818 170.415 147.016C170.664 156.866 151.346 156.903 151.359 147.12L156.405 147.229C156.989 150.293 160.003 151.413 162.816 150.495C165.114 149.744 165.774 147.335 163.384 146.09C159.011 143.814 150.852 145.281 151.908 137.732C152.59 132.874 159.292 132.425 163.116 132.836C166.522 133.205 169.781 135.469 169.643 139.165L169.648 139.168Z" fill="white"/>
<path d="M185.021 133.335V136.782H181.177C180.797 137.015 180.811 137.31 180.765 137.697C180.513 139.847 180.598 144.503 180.768 146.732C180.999 149.749 182.058 150.24 185.019 149.505V153.745C182.809 154.236 178.449 154.287 176.666 152.687C176.382 152.432 175.475 150.973 175.475 150.697V136.779H172.028V133.333H185.016L185.021 133.335Z" fill="white"/>
<path d="M180.781 125.648H175.48V130.95H180.781V125.648Z" fill="white"/>
</g>
<defs>
<clipPath id="clip0_75_95">
<rect width="255" height="161" fill="white"/>
</clipPath>
</defs>
</svg>
