<svg width="263" height="98" viewBox="0 0 263 98" fill="none" xmlns="http://www.w3.org/2000/svg">
<g clip-path="url(#clip0_64_114)">
<path d="M203.289 77.4138V49.4535C203.289 48.6289 202.146 45.739 201.631 44.9281C198.166 39.4439 189.644 41.2239 187.344 46.9864C187.147 47.4812 186.377 50.1545 186.377 50.4844V77.4172H176.021V50.1442C176.021 49.457 175.157 46.6187 174.812 45.8559C172.114 39.9216 163.789 40.5641 160.763 45.9555C160.549 46.3404 159.454 48.9416 159.454 49.1134V76.9018L158.936 77.4172H148.753V33.1592H159.45V37.2757C166.117 30.3896 177.979 30.1594 183.437 38.6433C189.72 30.9531 204.201 29.3759 210.47 37.8496C212.225 40.2205 213.98 45.1755 213.98 48.0825V76.9018L213.462 77.4172H203.279L203.289 77.4138Z" fill="white"/>
<path d="M93.1901 77.4137H82.4921V73.6408C81.0033 74.2558 79.7874 75.4551 78.3055 76.1698C64.8614 82.6573 48.8921 74.5823 46.3394 60.0025C42.5708 38.4748 64.5988 24.0807 82.4921 36.932V16.5176L83.0102 16.0022H92.6754L93.1935 16.5176V77.4137H93.1901ZM67.5661 41.8217C51.7696 43.9762 53.3136 69.3971 70.2224 68.8404C88.8135 68.2288 86.8894 39.1861 67.5661 41.8217Z" fill="white"/>
<path d="M108.721 58.5457C110.468 70.6445 125.056 72.2801 133.388 65.4146C133.809 65.4043 139.899 68.7271 140.597 69.2322C141.782 70.0844 139.989 71.3076 139.098 72.1048C127.094 82.8567 104.517 79.9771 99.3975 63.5281C93.4802 44.5192 108.596 27.3107 128.32 32.7227C135.464 34.6814 143.581 43.2512 143.581 50.8314V58.0371L143.063 58.5525H108.721V58.5457ZM132.88 49.9689C130.89 37.4887 111.598 38.1828 109.066 49.9689H132.88Z" fill="white"/>
<path d="M225.552 33.1592L238.499 65.0642L251.957 33.1592H263L238.899 88.9663C237.245 92.6155 231.866 98 227.625 98H220.55V88.736C228.523 89.9593 231.3 84.1212 232.961 77.6269L215.027 33.1592H225.552Z" fill="white"/>
<path d="M10.698 33.1592V60.7758C10.698 61.2397 11.7895 63.9474 12.135 64.4938C15.7482 70.1944 24.7121 70.294 28.4427 64.6896C28.7536 64.2257 30.0282 61.7826 30.0282 61.463V33.1592H40.7262V63.5213C40.7262 65.1466 38.6018 69.5965 37.5621 71.0088C29.6966 81.6575 7.92416 81.1077 1.88605 68.8508C1.37827 67.82 0 63.779 0 62.8341V33.1592H10.698Z" fill="white"/>
<path d="M40.7262 22.8644L20.2491 11.6212L0 23.208V11.5421L20.5358 0L40.7262 11.714V22.8644Z" fill="white"/>
</g>
<defs>
<clipPath id="clip0_64_114">
<rect width="263" height="98" fill="white"/>
</clipPath>
</defs>
</svg>
