<svg width="283" height="78" viewBox="0 0 283 78" fill="none" xmlns="http://www.w3.org/2000/svg">
<g clip-path="url(#clip0_64_74)">
<path d="M129.963 25.9186H106.737C104.19 25.9186 102.377 26.2574 101.284 26.931C99.9642 27.8521 99.3026 29.1081 99.3026 30.7256V51.6053C99.3026 53.691 99.8878 55.1525 101.077 55.9822C102.247 56.8081 104.286 57.2039 107.189 57.2039H129.887V63.6436H103.907C99.6239 63.6436 96.3042 62.7606 93.9636 61.0137C91.6231 59.2667 90.4528 56.8271 90.4528 53.71V29.2984C90.4528 25.656 91.6995 23.0641 94.1893 21.4885C96.3195 20.1373 99.7922 19.4599 104.603 19.4599H129.983V25.8996L129.963 25.9186ZM146.642 30.463H138.832V63.6588H146.642V30.463ZM146.642 19.6083H139.188V25.3934H146.642V19.6083ZM193.075 63.5637V40.526C193.075 33.7666 189.132 30.3869 181.284 30.3869H167.528C159.603 30.3869 155.641 33.7666 155.641 40.526V63.5637H163.435V42.5166C163.435 39.1368 165.661 37.447 170.098 37.447H178.794C183.173 37.447 185.361 39.1368 185.361 42.5166V63.5637H193.079H193.075ZM266.945 39.4375C266.945 33.4469 263.078 30.482 255.322 30.482H241.623C233.32 30.482 229.151 33.2985 229.151 38.9123V54.6272C229.151 57.8737 230.433 60.2791 232.964 61.7825C234.984 63.0575 238.097 63.6779 242.323 63.6779H266.868V57.9879H243.791C241.546 57.9879 239.963 57.7443 239.038 57.2914C237.718 56.4846 237.037 55.2248 237.037 53.4968V52.3893L266.926 43.6013V39.4527L266.945 39.4337V39.4375ZM236.965 46.8554V40.3586C236.965 37.5041 239.363 36.0768 244.155 36.0768H252.76C256.909 36.0768 258.986 37.3518 258.986 39.8714V40.3586L236.988 46.8554H236.969H236.965ZM283 19.5322H275.19V63.6588H283V19.5322ZM216.378 57.9689C214.133 57.9689 212.549 57.7253 211.624 57.2724C210.304 56.4655 209.547 55.2057 209.547 53.4778V52.7661V36.5412H219.433V30.9654H209.547V19.399H201.753V54.6234C201.753 57.8699 203.019 60.2753 205.566 61.7787C207.566 63.0537 210.698 63.6741 214.924 63.6741H224.998V57.9841H216.374V57.9651L216.378 57.9689ZM26.19 71.8075C26.6413 73.3832 27.0008 75.0007 27.2456 76.6525C29.1502 73.8741 31.1121 71.149 32.9823 68.3326C33.4527 67.6209 33.9078 66.9054 34.3591 66.2127C34.8104 65.5009 35.2464 64.7854 35.6786 64.0547C36.4894 62.7416 37.3001 61.4057 38.0918 60.0736C38.8835 58.7415 39.656 57.3904 40.4133 56.0164C41.0749 54.8898 41.7518 53.7823 42.5282 52.7128C40.1303 52.7889 37.7361 52.827 35.3382 52.827C34.1488 52.827 32.9402 52.827 31.7355 52.808C25.7349 52.7318 19.7343 52.3589 13.7911 51.5862C13.7911 51.5862 14.3189 52.1876 15.2253 53.238C15.906 53.9345 16.5638 54.6843 17.1872 55.4341C14.9422 55.9213 12.6781 56.279 10.3758 56.5036C8.6395 56.671 6.84582 56.7091 5.11333 56.5416C3.35789 56.3742 1.6407 56.0164 0 55.377C1.77456 58.7377 3.98128 61.8738 6.60488 64.6142C7.00262 65.029 7.39654 65.421 7.79429 65.8168C8.75806 66.776 9.77537 67.7313 10.85 68.5952C11.9247 69.4592 13.0568 70.2661 14.2844 70.8864C14.8887 71.2061 15.5312 71.4687 16.1699 71.6933C17.9253 72.2756 19.7726 72.5002 21.6236 72.3898C22.5874 72.3327 23.5473 72.2414 24.5111 72.1082C25.0962 72.032 25.6623 71.9407 26.2283 71.8265M63.9262 17.4884C64.2666 16.6244 64.5496 15.7414 64.7752 14.8775C65.2456 13.1115 65.4751 11.3835 65.4751 9.76981C61.9298 6.69076 57.7573 4.175 53.0799 2.44708C32.6419 -5.04692 10.0201 5.24448 2.5471 25.4124C-0.508656 33.6752 -0.508656 42.3301 1.92371 50.159C2.1876 51.1371 2.48974 52.0734 2.83011 53.0135C3.6409 53.219 4.48994 53.3713 5.39634 53.4626C6.03885 53.5197 6.73491 53.5577 7.43479 53.5577C7.66043 53.5577 7.88608 53.5577 8.13467 53.5387C4.90681 46.1018 4.49376 37.5421 7.58777 29.3935C14.1315 12.2475 33.7931 3.4785 51.5081 9.78884C56.3384 11.5168 60.5262 14.181 63.9415 17.4884M76.0383 45.1655C76.3787 44.5832 76.7382 43.9819 77.0556 43.3805C77.5834 42.3872 78.092 41.371 78.5472 40.3205C79.4153 38.33 79.9431 36.21 80.0005 34.0482C80.0196 33.2414 79.9813 32.4345 79.8857 31.6276C79.6983 30.0519 79.3006 28.4534 78.7728 26.9348C78.2642 25.3934 77.6025 23.8938 76.9409 22.4476C76.677 21.8462 76.394 21.2449 76.0919 20.6626C74.1299 16.6244 71.5637 12.925 68.5653 9.58332C68.6035 11.669 68.2823 13.7128 67.7545 15.7034C67.2267 17.6939 66.4542 19.6273 65.5478 21.4885C64.3392 23.9281 63.0198 26.2764 61.5473 28.5295C60.9813 27.5171 60.4344 26.4819 59.9066 25.4505C59.1341 24.0423 58.6599 23.2164 58.6599 23.2164C57.0765 30.071 55.019 36.8114 52.6401 43.4376C52.1697 44.7697 51.6955 46.0866 51.1868 47.3997C50.1886 50.0296 49.1675 52.6367 48.112 55.2286C49.6035 54.8328 51.1103 54.5511 52.6401 54.2885C54.4721 54.0259 56.2619 53.7252 58.0747 53.4055C59.8875 53.0668 61.6774 52.7471 63.4902 52.3931C64.4731 52.2256 65.4521 52.0353 66.435 51.8298C67.4179 51.6243 68.3779 51.415 69.3608 51.1904C73.2464 50.3074 77.0977 49.257 80.9451 48.3169C79.2279 47.3768 77.5872 46.3073 76.0001 45.1617M71.0397 53.9688C64.6261 68.2375 48.8501 76.1082 33.3609 73.2728C32.9096 73.9312 32.4545 74.5858 32.0032 75.2253C31.5328 75.8837 31.0777 76.5574 30.6264 77.2348C34.0799 77.9465 37.5526 78.1559 40.9678 77.8933C56.4952 77.4251 70.8753 67.8683 76.5546 52.6024C74.7418 53.0516 72.8946 53.5235 71.0435 53.9536" fill="white"/>
</g>
<defs>
<clipPath id="clip0_64_74">
<rect width="283" height="78" fill="white"/>
</clipPath>
</defs>
</svg>
