<svg width="114" height="122" viewBox="0 0 114 122" fill="none" xmlns="http://www.w3.org/2000/svg">
<g clip-path="url(#clip0_64_89)">
<path d="M112.507 36.7573C105.455 35.3679 98.3409 33.9482 91.1962 33.0668C61.1271 29.357 30.4499 30.7052 0.838296 36.7518L0 7.57883C0.391753 6.6095 1.09855 6.21683 2.01629 5.85437C6.61596 4.04204 17.3549 2.83656 22.6285 2.16106C46.0652 -0.843015 71.0634 -0.741415 94.4562 2.63062C98.8778 3.26768 107.979 4.38254 111.803 5.85162C113.682 6.57381 113.764 7.96875 113.934 9.80579C114.2 12.711 113.606 35.9747 112.504 36.7573H112.507ZM56.4425 21.7672V6.5436C56.4425 5.22554 54.1468 4.39627 52.9414 4.39627C50.6457 4.39627 42.3778 5.81318 39.9725 6.42553C38.1562 6.88685 37.7425 7.27402 36.7289 8.79528C35.7152 10.3165 30.3732 21.0889 30.2636 22.4619C30.1704 23.6344 30.3814 22.9699 30.7539 22.9562C39.2903 22.6541 48.128 17.3654 56.4452 21.7672H56.4425ZM58.7793 6.07679V20.8308C67.9567 18.9279 76.3945 22.039 85.4158 23.1676L76.9808 7.03513C75.9288 6.41729 64.3159 4.47864 62.6941 4.47864C61.3682 4.47864 59.7327 5.16239 58.7793 6.07679ZM35.4111 7.71612C34.4331 7.54588 34.1044 8.33396 33.6277 8.96828C29.902 13.9275 27.2583 21.1905 23.7325 26.4435C26.431 26.3227 29.2116 26.6275 31.9045 26.4435C36.8302 26.103 44.0489 23.5273 48.2431 23.6234C52.8482 23.7305 53.5961 27.8797 57.615 27.8522C60.4915 27.833 61.2257 25.4111 63.5817 24.4719C68.2608 22.6047 77.3424 26.0673 82.8461 26.4435C85.5473 26.6275 88.3142 26.3227 91.0154 26.4435L80.4983 7.70514L79.5641 8.63876L88.6813 25.0349C81.1832 26.0701 69.1156 20.3585 62.338 23.6921C60.6038 24.5461 59.519 26.4765 57.6041 26.471C55.7658 26.4655 53.4975 23.9612 51.4237 23.272C44.679 21.034 33.5236 26.6193 26.0639 25.0349L35.4057 7.71063L35.4111 7.71612Z" fill="white"/>
<path d="M54.1056 36.285V121.53C50.5223 120.02 46.9664 117.519 43.8653 115.168C20.7026 97.6132 6.17758 70.8786 1.73132 42.2053C18.7438 37.9601 36.5617 36.4278 54.1056 36.2878V36.285ZM30.6388 47.6588C3.84076 50.7397 12.7524 92.5304 38.7917 83.9328C59.4559 77.1091 52.8016 45.1105 30.6388 47.6588Z" fill="white"/>
<path d="M59.2478 36.285L84.9473 37.6937C83.131 39.4868 82.1174 42.5019 83.7857 44.7096L86.5445 41.8648C87.5745 40.8818 87.9991 38.3363 89.4018 38.1303L112.06 42.1586C112.017 44.5586 110.337 45.7503 109.915 47.4913C109.42 49.526 109.899 51.6679 109.603 53.7356C108.814 59.2412 105.483 64.5931 104.343 69.544C103.962 71.1998 102.398 71.7902 102.319 72.1445C102.223 72.5866 102.732 73.2813 102.516 74.2204C101.891 76.9279 99.6394 79.5421 97.0971 80.5718C99.8339 85.4651 94.4069 85.6902 91.0236 83.8285C94.3028 80.6871 97.508 77.3398 99.6723 73.295C100.039 72.6085 101.078 71.2108 100.601 70.4804C95.8123 78.0702 88.4868 82.1562 80.7805 86.2092L76.074 91.5529C73.6714 85.1713 73.5536 80.8958 75.5863 74.4456C77.9971 66.7898 82.5256 59.6064 89.1525 55.0289C85.35 55.6522 82.2379 58.9749 79.5669 61.5753L71.4003 74.6927C69.343 65.9715 68.3293 56.995 68.5868 48.002L67.1952 57.1378C66.5842 68.9344 68.8087 80.5169 70.9237 92.0279C67.5239 88.8206 63.7379 86.0994 59.3218 84.4573L59.2478 82.1919C60.8422 82.9772 61.864 80.5498 61.8202 79.1384C61.7298 76.2002 59.2423 76.7714 59.2423 76.5709V36.2905L59.2478 36.285ZM65.7953 37.2242C65.0611 39.4346 64.7351 41.9856 67.4171 42.8424C69.0224 41.0163 68.1458 37.8557 65.7953 37.2242ZM72.1866 40.5907C71.1099 40.923 70.5675 42.6804 70.058 43.6332C69.921 45.0666 72.7811 44.9677 73.7399 44.4899C75.348 43.6909 76.1726 39.3632 72.1866 40.5934V40.5907ZM67.1897 48.4606C66.8226 45.5087 65.4967 43.2955 63.2201 41.4474C61.1052 44.3746 63.716 48.543 67.1897 48.4606ZM101.297 41.9087C97.9025 42.0598 97.4204 46.2885 98.034 48.9356C101.952 48.8258 102.404 45.0034 101.297 41.9087ZM73.6029 46.2007C72.2688 46.4698 69.1347 50.4294 70.4662 51.5031C73.1783 53.6861 76.0959 49.4409 75.548 46.8981C75.2439 45.9755 74.3809 46.0442 73.6029 46.2007ZM87.7416 46.1265C83.5666 46.6208 82.9009 52.3434 85.6486 55.0124C88.7662 52.4999 89.3936 49.8006 87.7416 46.1265ZM95.1219 51.6377C95.4397 51.3246 96.2725 48.8725 95.9739 48.4469C93.5631 46.1815 89.8648 49.8638 91.2427 52.2363C91.5605 52.7855 94.7274 52.0221 95.1219 51.6377ZM107.373 48.4633C103.91 48.7215 102.831 51.9315 103.173 55.0179C106.557 54.952 108.129 51.4674 107.373 48.4633ZM80.0737 49.8912C77.2383 50.5146 77.2273 57.4756 80.5011 58.2993C82.8762 57.157 82.1913 49.4244 80.0737 49.8912ZM99.6805 51.7502C97.8587 52.1512 96.5383 57.4206 98.2669 58.7607C100.815 58.2115 102.362 51.1599 99.6805 51.7502ZM61.6997 60.054C62.4777 60.7954 65.6857 60.9821 65.7651 59.9469C64.4748 57.4618 65.0693 54.801 61.3545 55.4902C59.4149 55.85 60.9299 59.3208 61.6997 60.054ZM102.946 58.7717C100.59 60.5757 99.1463 63.3327 101.535 65.7848C103.672 64.3954 105.688 60.1748 102.946 58.7717ZM77.0027 60.1776C75.1973 59.0051 70.2388 62.2618 71.1291 63.9286C73.0221 67.4763 77.2081 62.8219 77.0027 60.1776ZM86.2294 60.7597C85.4322 60.9025 84.5638 61.1524 84.0214 61.8142C88.9991 70.7303 95.8917 59.0353 86.2294 60.7597ZM98.0258 62.9867C93.9631 64.2608 95.5191 68.6845 97.1053 71.414C100.467 70.1619 99.1545 65.5542 98.0258 62.9867ZM80.7558 66.7486C81.049 70.9362 85.8157 72.7046 87.7197 68.3605C85.6788 66.4191 83.5091 65.6118 80.7558 66.7486ZM60.6504 71.8863C59.9628 74.5829 64.9734 77.0295 66.05 74.7009C66.8637 72.9353 62.1462 71.1175 60.6504 71.8863ZM88.2265 71.8836C86.6622 74.7696 85.6897 78.2103 89.3799 79.8441C91.1414 77.4057 91.0619 73.4296 88.2265 71.8836ZM85.298 82.0656C86.413 80.8958 86.6623 76.0739 84.7117 76.0739C82.4023 76.0739 82.0626 81.0221 83.5282 82.461C83.9994 82.785 84.9637 82.4171 85.298 82.0628V82.0656ZM80.1367 82.0436C83.4734 79.3059 77.0931 76.5599 75.1617 80.1379C75.8165 82.0903 78.3944 83.477 80.1367 82.0436Z" fill="white"/>
<path d="M59.2478 122V99.9857C60.623 100.554 64.5707 96.8306 64.3899 96.0178C62.8749 94.34 60.96 94.6009 59.2533 95.7707V89.2161C69.4662 93.6261 70.4853 103.267 69.5512 113.356C69.1567 117.606 62.3709 119.545 59.2505 122H59.2478ZM66.25 99.0493C62.7982 99.4557 61.875 104.747 64.1516 107.002C66.661 104.95 67.3678 102.111 66.25 99.0493Z" fill="white"/>
<path d="M78.4053 99.2827C78.9861 94.9688 83.2296 87.4421 87.9717 86.8627C90.4455 86.5607 92.7878 87.379 95.226 87.3433C90.3962 94.653 85.0925 101.776 78.4026 107.479C78.6491 104.898 78.0656 101.784 78.4026 99.2827H78.4053ZM86.5828 89.2215C84.8322 90.4627 84.1802 93.7331 85.624 95.323C88.7744 98.7939 90.0784 90.718 86.5828 89.2215Z" fill="white"/>
<path d="M21.3437 62.5665L23.5847 69.7884L18.3494 73.2373C16.2235 70.4529 16.0318 66.3312 16.7632 63.0251L21.3437 62.5665Z" fill="white"/>
<path d="M46.161 57.3519L40.3642 60.2105L35.4796 54.3973C36.0056 53.5049 37.2713 50.7699 38.3643 50.8742C39.9012 51.0225 46.9089 56.3112 46.161 57.3492V57.3519Z" fill="white"/>
<path d="M47.5582 59.2385C49.1006 62.5968 49.1088 65.9084 48.9691 69.5441L43.827 70.0137L41.9203 62.3524L47.5555 59.2385H47.5582Z" fill="white"/>
<path d="M30.2718 77.5128L27.6638 81.7443C24.3325 80.6651 21.3492 78.4217 19.5247 75.4039L24.8339 72.4272C26.0036 72.6442 28.2473 77.5155 30.2718 77.51V77.5128Z" fill="white"/>
<path d="M35.3782 73.7041L31.647 75.9009L27.0117 71.1806L32.3154 68.16L35.3782 73.7041Z" fill="white"/>
<path d="M36.1864 58.4642C36.748 59.0353 38.6739 61.3337 38.2 62.0229C36.6439 62.141 35.3481 63.8764 34.0167 64.2032C32.4305 64.5904 30.0006 59.6449 30.48 58.7662C30.858 58.077 32.7785 57.2642 33.3812 56.4624C33.6935 56.4074 35.8385 58.1099 36.1892 58.4642H36.1864Z" fill="white"/>
<path d="M27.7158 60.2297L31.2032 65.5624L25.8666 68.5912C24.8996 68.3742 24.0667 63.415 23.7955 62.3139L27.7158 60.2297Z" fill="white"/>
<path d="M40.0683 63.9368C41.3066 68.0145 43.4571 71.1147 37.5945 71.8451L34.4824 66.2708L40.0683 63.9368Z" fill="white"/>
<path d="M35.4139 49.8748L33.2633 53.1095L27.9404 50.5695C30.3731 49.8721 32.888 49.7595 35.4139 49.8748Z" fill="white"/>
<path d="M37.285 81.2556C37.4056 82.5105 37.2905 82.008 36.5837 82.1782C33.1894 82.9965 27.4802 83.4523 32.447 79.4542L37.285 81.2556Z" fill="white"/>
<path d="M21.371 60.1502C20.7053 59.9332 17.2152 61.4765 17.6672 59.9525C18.1822 58.2033 20.4122 55.3008 21.8587 54.0844L21.371 60.1502Z" fill="white"/>
<path d="M48.0321 71.889C46.9061 74.0364 45.9774 76.6093 43.8324 77.9741L44.3419 72.3998L48.0321 71.889Z" fill="white"/>
<path d="M41.4875 77.9741C40.756 78.9105 39.2383 74.6872 38.6986 74.4565L41.9532 72.8199L41.4875 77.9714V77.9741Z" fill="white"/>
<path d="M31.2088 54.5593C31.7895 55.3447 29.2199 57.1268 28.4144 56.8934L26.5433 52.6783L31.2115 54.5593H31.2088Z" fill="white"/>
<path d="M23.7353 59.2357C23.7079 58.2389 23.6942 57.2449 23.7901 56.2481C23.8339 55.7813 23.9791 54.0431 24.6612 54.0898L26.4967 58.0192C26.3269 58.7716 24.5106 59.3758 23.7353 59.2385V59.2357Z" fill="white"/>
<path d="M38.6849 79.3745C38.2521 79.7727 34.3209 78.0043 34.014 77.0432L36.5673 75.629L38.6822 79.3745H38.6849Z" fill="white"/>
</g>
<defs>
<clipPath id="clip0_64_89">
<rect width="114" height="122" fill="white"/>
</clipPath>
</defs>
</svg>
