<svg width="332" height="67" viewBox="0 0 332 67" fill="none" xmlns="http://www.w3.org/2000/svg">
<g clip-path="url(#clip0_64_77)">
<path d="M24.1228 0.181072C26.8326 -0.106617 29.5344 0.106194 32.2046 0.555461C33.3755 0.752509 34.6413 1.66287 35.8281 1.61163C37.2285 1.55252 39.8512 0.295359 41.8409 0.114076C65.7539 -2.05344 76.8816 26.7903 68.4043 46.0497C55.71 74.8974 12.9555 73.66 2.07704 44.1502C-4.20084 27.1371 3.94023 2.33677 24.1228 0.181072ZM26.1798 8.29548C9.23312 11.0423 4.29626 31.3145 11.8875 44.9975C22.4258 63.9889 50.9037 62.8973 60.2315 43.4369C66.6518 30.0416 61.1097 10.2857 44.7524 8.29548L48.7715 14.6877C55.3224 27.4682 43.8188 42.7196 29.6254 36.8082C20.349 32.9461 18.7152 22.144 22.8728 13.8246C23.3514 12.863 26.5794 8.70534 26.1798 8.29154V8.29548ZM37.4974 11.9606C36.9951 11.4995 36.3107 11.1645 35.8004 10.6916C32.7782 12.0827 30.2623 16.0276 29.4592 19.1843C26.6387 30.2465 39.2024 33.1983 41.8765 24.8356C43.1661 20.7962 40.5197 14.7153 37.5014 11.9566L37.4974 11.9606Z" fill="white"/>
<path d="M266.013 49.8292H239.343C239.177 49.8292 236.578 48.7927 236.242 48.5957C231.902 46.0577 231.847 34.6763 234.798 31.2122C235.518 30.3649 238.746 28.6703 239.742 28.6703H257.919C259.336 28.6703 257.88 22.4002 255.55 22.4002H234.806V15.3459H257.128C257.781 15.3459 260.392 16.1263 261.151 16.4494C263.454 17.4307 264.909 19.6258 265.443 21.9864C265.582 22.6012 266.017 25.2692 266.017 25.7264V49.8253L266.013 49.8292ZM242.504 35.3305C239.232 35.827 240.158 42.7749 242.108 42.7749H257.911L258.505 42.1877V35.9177L257.911 35.3305H242.504Z" fill="white"/>
<path d="M332 49.8292H305.33C304.974 49.8292 302.624 48.6115 302.169 48.2607C297.873 44.9661 297.885 32.3275 302.877 29.7659C303.237 29.5806 305.939 28.6703 306.117 28.6703H324.488C324.959 26.621 324.187 22.4002 321.525 22.4002H301.176V15.3459H323.103C323.297 15.3459 325.698 15.8228 326.074 15.9253C327.87 16.4336 329.718 17.6041 330.631 19.2435C330.853 19.6416 331.996 22.4121 331.996 22.5933V49.8253L332 49.8292ZM324.492 35.3305H308.491C306.22 35.3305 306.026 42.7749 308.491 42.7749H324.492V35.3305Z" fill="white"/>
<path d="M120.217 15.346C120.387 21.5845 120.562 27.89 120.467 34.1403C120.364 40.8163 121.812 52.513 111.103 50.0499C107.887 49.309 106.091 45.3563 104.604 42.7828C100.921 36.4143 98.0806 29.4861 94.3345 23.1845L93.3653 23.8033C93.1398 24.556 93.749 25.1156 93.749 25.3363V49.8253H86.2408V20.6347C86.2408 20.1342 87.7164 17.214 88.2148 16.7174C90.7426 14.2031 95.7823 14.5223 98.2863 16.9145C99.0221 17.616 99.9675 19.2436 100.529 20.1736C104.809 27.2831 107.859 35.496 112.511 42.373L113.125 41.0291L112.84 15.9253L113.299 15.342H120.213L120.217 15.346Z" fill="white"/>
<path d="M196.869 49.8292V15.3459H220.379C221.118 15.3459 223.868 16.1854 224.675 16.5716C226.613 17.4977 227.784 19.0465 228.492 21.013C229.762 24.5402 229.612 36.4852 229.283 40.635C229.058 43.4528 227.95 46.6016 225.517 48.2647C224.873 48.706 222.151 49.8292 221.565 49.8292H196.869ZM204.377 42.7749H219.196C220.652 42.7749 221.577 39.8074 221.72 38.6172C222.008 36.1857 222.056 26.2505 221.15 24.3825C220.845 23.7559 219.022 22.4002 218.409 22.4002H204.381V42.7749H204.377Z" fill="white"/>
<path d="M186.596 15.3459V22.4002H175.532V49.8292H167.632V22.4002H156.567V15.3459H186.596Z" fill="white"/>
<path d="M298.02 15.3459V22.4002H286.955V49.8292H279.051V22.4002H267.991V15.3459H298.02Z" fill="white"/>
<path d="M153.802 15.3459C153.118 17.5765 154.226 20.4771 153.209 22.4002H142.342V49.8292H134.834V22.4002H123.374V15.3459H153.798H153.802Z" fill="white"/>
</g>
<defs>
<clipPath id="clip0_64_77">
<rect width="332" height="67" fill="white"/>
</clipPath>
</defs>
</svg>
